<svg width="417" height="50" viewBox="46 31 417 50" fill="none" xmlns="http://www.w3.org/2000/svg">
<path d="M121.817 67.4441C115.843 76.8664 103.295 79.677 93.873 73.7033C84.4491 67.7286 81.6384 55.1807 87.6121 45.7583C93.5868 36.3344 106.135 33.5237 115.559 39.4984C124.981 45.4722 127.792 58.0202 121.817 67.4441ZM118.063 48.2516C116.854 46.3143 115.21 44.6065 113.149 43.2998C105.785 38.6314 96.0819 40.8049 91.4135 48.1683C86.7451 55.5318 88.9186 65.2353 96.282 69.9036C98.3135 71.1916 100.525 71.9485 102.76 72.2265C102.549 72.1104 102.338 71.9903 102.131 71.8592C95.5055 67.6584 93.5263 58.8211 97.7279 52.1936C101.929 45.5676 110.766 43.5874 117.392 47.7882C117.624 47.9351 117.846 48.0918 118.063 48.2516ZM117.997 65.044C120.892 60.477 119.551 54.4862 114.982 51.5896C110.415 48.6941 104.422 50.0351 101.527 54.6021C100.493 56.2321 100.029 58.0417 100.036 59.8307C101.294 58.1725 102.975 57.1201 104.722 56.7354L105.114 56.6611C107.213 56.3179 109.279 56.8532 110.967 57.923C112.654 58.9927 114.024 60.6361 114.609 62.6813L114.708 63.0675C115.104 64.8113 114.869 66.7788 113.905 68.6233C115.526 67.8671 116.963 66.6736 117.997 65.044ZM109.717 66.8986C110.483 65.6895 110.522 64.7651 110.279 63.9208L110.279 63.9202C110.036 63.0711 109.404 62.2615 108.557 61.7244C107.71 61.1876 106.713 60.9638 105.839 61.1054L105.515 61.173C104.766 61.3656 104.052 61.8248 103.381 62.8822C102.614 64.0923 102.579 65.0188 102.822 65.8636L102.872 66.0223C103.145 66.8139 103.748 67.5545 104.541 68.0578C105.389 68.5948 106.39 68.8208 107.262 68.6783L107.263 68.6789C108.13 68.5382 108.949 68.1091 109.717 66.8986Z" fill="#00A4BD" stroke="#00A4BD" stroke-width="0.5"/>
<path d="M81.5506 51.2893H58.6292V55.7135C60.0618 55.7416 62.2107 55.7556 65.0758 55.7556C70.0197 55.7556 75.0478 55.6713 80.1601 55.5028V63.7612C75.0478 63.5646 69.6545 63.4663 63.9803 63.4663C61.6208 63.4663 59.8371 63.4803 58.6292 63.5084V74H48.6854C48.9101 68.5506 49.0225 63.4522 49.0225 58.7051C49.0225 53.9579 48.9101 48.8596 48.6854 43.4101H81.5506V51.2893Z" fill="white"/>
<path d="M153.629 42.368H164.079V59.1376C164.022 63.2669 162.604 66.6798 159.823 69.3764C157.07 72.073 152.421 73.4213 145.876 73.4213C139.247 73.4213 134.711 72.1433 132.267 69.5871C129.823 67.0028 128.629 63.618 128.685 59.4326V42.368H139.135V58.7584C139.135 59.9944 139.219 61.0056 139.388 61.7921C139.584 62.5506 140.174 63.2669 141.157 63.941C142.169 64.6152 143.784 64.9522 146.003 64.9522C148.419 64.9522 150.188 64.6152 151.312 63.941C152.435 63.2388 153.096 62.4663 153.292 61.6236C153.517 60.7809 153.629 59.6994 153.629 58.3792V42.368ZM202.797 42.4522C202.601 47.1994 202.502 52.2837 202.502 57.7051C202.502 63.1545 202.601 68.2528 202.797 73H187.713L177.516 49.9944L178.275 73H167.446C167.671 67.5506 167.783 62.4522 167.783 57.7051C167.783 52.986 167.671 47.9017 167.446 42.4522H182.952L193.191 66.0899L192.474 42.4522H202.797ZM219.649 41.9466C224.93 41.9466 229.101 42.5927 232.163 43.8848C235.225 45.1489 237.36 46.9185 238.567 49.1938C239.803 51.441 240.421 54.2079 240.421 57.4944C240.421 60.6124 239.719 63.3371 238.315 65.6685C236.91 68 234.803 69.8118 231.994 71.1039C229.185 72.368 225.73 73 221.629 73C219.129 73 216.587 73 214.003 73C211.419 73 208.806 72.986 206.166 72.9579C206.39 67.4242 206.503 62.2697 206.503 57.4944C206.503 52.6629 206.39 47.6208 206.166 42.368C209.508 42.0871 214.003 41.9466 219.649 41.9466ZM222.809 64.6152C225.421 64.6152 227.163 63.9831 228.034 62.7191C228.905 61.4551 229.34 59.7135 229.34 57.4944C229.34 55.3595 228.876 53.632 227.949 52.3118C227.051 50.9916 225.337 50.3315 222.809 50.3315C220.084 50.3315 218.048 50.4157 216.699 50.5843V64.6152H222.809ZM253.718 65.2893C264.392 65.2331 272.131 65.0787 276.934 64.8258C276.738 65.9775 276.611 67.1713 276.555 68.4073C276.527 69.6152 276.513 71.1461 276.513 73H243.774C243.999 67.5506 244.111 62.4522 244.111 57.7051C244.111 52.9579 243.999 47.8596 243.774 42.4101H276.513V50.0365H253.718V54.0815C255.067 54.1096 257.061 54.1236 259.701 54.1236C264.168 54.1236 268.788 54.0393 273.564 53.8708V61.118C268.788 60.9494 264.168 60.8652 259.701 60.8652C257.061 60.8652 255.067 60.8792 253.718 60.9073V65.2893ZM314.147 52.6067C314.147 55.0506 313.544 57.1152 312.336 58.8006C311.156 60.486 309.119 61.7079 306.226 62.4663C306.563 62.9157 306.802 63.2669 306.942 63.5197L313.768 73H302.308C301.072 70.6966 299.119 67.4382 296.451 63.2247H290.257V73H280.313C280.538 67.5506 280.65 62.4522 280.65 57.7051C280.65 52.9579 280.538 47.8596 280.313 42.4101H290.257V42.4522H298.895C304.569 42.4522 308.529 43.3652 310.777 45.191C313.024 47.0169 314.147 49.4888 314.147 52.6067ZM290.257 50.5421V55.3455H295.945C298.333 55.3455 300.131 55.2753 301.338 55.1348C302.574 54.9663 303.431 54.7135 303.909 54.3764C304.386 54.0393 304.625 53.5478 304.625 52.9017C304.625 52.2837 304.4 51.8062 303.951 51.4691C303.501 51.132 302.659 50.8933 301.423 50.7528C300.187 50.6124 298.361 50.5421 295.945 50.5421H290.257ZM345.749 61.4972L347.94 42.4101H358.221L352.575 73H339.639L336.774 55.9354L333.446 73H321.058L315.412 42.4101H325.693L327.842 61.2444L331.212 42.4101H342.462L345.749 61.4972ZM371.523 65.2893C382.197 65.2331 389.936 65.0787 394.739 64.8258C394.543 65.9775 394.416 67.1713 394.36 68.4073C394.332 69.6152 394.318 71.1461 394.318 73H361.579C361.804 67.5506 361.916 62.4522 361.916 57.7051C361.916 52.9579 361.804 47.8596 361.579 42.4101H394.318V50.0365H371.523V54.0815C372.871 54.1096 374.866 54.1236 377.506 54.1236C381.972 54.1236 386.593 54.0393 391.368 53.8708V61.118C386.593 60.9494 381.972 60.8652 377.506 60.8652C374.866 60.8652 372.871 60.8792 371.523 60.9073V65.2893ZM408.399 64.4888C416.545 64.4326 423.286 64.2921 428.624 64.0674C428.258 65.5 428.034 66.8764 427.949 68.1966C427.865 69.5169 427.823 71.118 427.823 73H398.118C398.343 67.5506 398.455 62.4522 398.455 57.7051C398.455 52.9579 398.343 47.8596 398.118 42.4101H408.399V64.4888ZM441.44 64.4888C449.586 64.4326 456.328 64.2921 461.665 64.0674C461.3 65.5 461.075 66.8764 460.991 68.1966C460.906 69.5169 460.864 71.118 460.864 73H431.159C431.384 67.5506 431.496 62.4522 431.496 57.7051C431.496 52.9579 431.384 47.8596 431.159 42.4101H441.44V64.4888Z" fill="white"/>
</svg>
